<?xml version="1.0" encoding="utf-8"?>
<svg width="512" height="512" viewBox="0 0 512 512" fill="none"
     xmlns="http://www.w3.org/2000/svg">

  <!-- White rounded square background (matches light page bg) -->
  <rect width="512" height="512" rx="112" ry="112" fill="#ffffff"/>

  <!-- Subtle border like the UI cards -->
  <rect x="4" y="4" width="504" height="504" rx="110" ry="110"
        fill="none" stroke="#6b7280" stroke-width="6" opacity="0.25"/>

  <!-- Original Heroicons truck outline, scaled and centered, in primary-600 -->
  <g transform="translate(96, 116) scale(13.33)">
    <path
      stroke-linecap="round"
      stroke-linejoin="round"
      stroke-width="1.8"
      stroke="#4f46e5"
      fill="none"
      d="M8.25 18.75a1.5 1.5 0 0 1-3 0m3 0a1.5 1.5 0 0 0-3 0m3 0h6m-9 0H3.375a1.125 1.125 0 0 1-1.125-1.125V14.25m17.25 4.5a1.5 1.5 0 0 1-3 0m3 0a1.5 1.5 0 0 0-3 0m3 0h1.125c.621 0 1.129-.504 1.09-1.124a17.902 17.902 0 0 0-3.213-9.193 2.056 2.056 0 0 0-1.58-.86H14.25M16.5 18.75h-2.25m0-11.177v-.958c0-.568-.422-1.048-.987-1.106a48.554 48.554 0 0 0-10.026 0 1.106 1.106 0 0 0-.987 1.106v7.635m12-6.677v6.677m0 4.5v-4.5m0 0h-12"
    />
  </g>

</svg>